<?xml version="1.0" encoding="utf-8"?>
<!-- Generator: Adobe Illustrator 16.0.0, SVG Export Plug-In . SVG Version: 6.00 Build 0)  -->
<!DOCTYPE svg PUBLIC "-//W3C//DTD SVG 1.1//EN" "http://www.w3.org/Graphics/SVG/1.1/DTD/svg11.dtd">
<svg version="1.1" id="Layer_1" xmlns="http://www.w3.org/2000/svg" xmlns:xlink="http://www.w3.org/1999/xlink" x="0px" y="0px"
	 width="120px" height="40px" viewBox="0 0 120 40" enable-background="new 0 0 120 40" xml:space="preserve">
<g>
	<path fill="#D62901" d="M12.681,8.563c-2.854,0-5.185,0.691-6.993,2.078c-1.808,1.388-3.106,3.134-3.894,5.239
		c-0.789,2.107-1.181,4.276-1.181,6.503c0,2.882,0.794,5.138,2.385,6.77c1.59,1.633,3.811,2.446,6.665,2.446
		c2.855,0,5.186-0.705,6.994-2.119c1.808-1.414,3.105-3.181,3.895-5.301c0.787-2.12,1.181-4.281,1.181-6.484
		c0-2.826-0.794-5.062-2.386-6.705C17.757,9.345,15.535,8.536,12.681,8.563 M14.108,23.771c-0.761,2.039-2.093,3.072-3.995,3.098
		c-1.008,0-1.762-0.325-2.264-0.978c-0.504-0.652-0.755-1.685-0.755-3.1c0-2.31,0.388-4.471,1.163-6.482
		c0.774-2.01,2.099-3.018,3.975-3.018c1.006,0,1.76,0.32,2.264,0.959c0.501,0.639,0.752,1.637,0.752,2.997
		C15.249,19.559,14.869,21.732,14.108,23.771 M91.583,8.563c-2.338,0-4.472,1.032-6.4,3.098V9.255h-5.587L75.314,40l6.4-0.692
		l1.104-8.278c1.194,0.38,2.512,0.57,3.954,0.57c2.69,0,4.893-0.739,6.604-2.221c1.715-1.482,2.949-3.339,3.712-5.567
		c0.76-2.229,1.141-4.498,1.141-6.809c0-2.718-0.563-4.804-1.691-6.26C95.408,9.29,93.76,8.563,91.583,8.563 M91.176,21.63
		c-0.383,1.51-0.978,2.766-1.793,3.772c-0.817,1.005-1.849,1.509-3.101,1.509c-0.924,0-1.835-0.176-2.73-0.53l1.466-10.601
		c1.307-1.659,2.679-2.488,4.119-2.488c0.815,0,1.454,0.285,1.917,0.856c0.461,0.57,0.691,1.563,0.691,2.978
		C91.745,18.62,91.555,20.123,91.176,21.63 M35.299,8.563c-2.853,0-5.185,0.691-6.992,2.078c-1.809,1.388-3.105,3.134-3.893,5.239
		c-0.788,2.107-1.182,4.276-1.182,6.503c0,2.882,0.794,5.138,2.384,6.77c1.589,1.633,3.812,2.446,6.667,2.446
		c2.854,0,5.184-0.705,6.991-2.119c1.808-1.414,3.108-3.181,3.896-5.301c0.788-2.12,1.182-4.281,1.182-6.484
		c0-2.826-0.795-5.062-2.386-6.705C40.376,9.345,38.155,8.536,35.299,8.563 M36.727,23.771c-0.76,2.039-2.092,3.072-3.994,3.098
		c-1.006,0-1.761-0.325-2.263-0.978c-0.504-0.652-0.755-1.685-0.755-3.1c0-2.31,0.387-4.471,1.162-6.482
		c0.775-2.01,2.1-3.018,3.976-3.018c1.005,0,1.759,0.32,2.263,0.959c0.502,0.639,0.754,1.637,0.754,2.997
		C37.87,19.559,37.488,21.732,36.727,23.771 M118.061,9.907c-0.883-0.923-2.113-1.371-3.689-1.344c-1.278,0-2.55,0.4-3.814,1.201
		c-1.262,0.803-2.287,1.87-3.077,3.202L109.354,0l-6.399,0.652l-4.241,30.256h6.32l1.854-13.213
		c0.817-1.604,2.859-3.873,4.548-3.873c0.488,0,0.869,0.123,1.142,0.368c0.271,0.245,0.408,0.693,0.408,1.344
		c0,0.301-0.044,0.653-0.122,1.062l-2.121,14.313h6.36l2.203-15.741c0.053-0.326,0.08-0.786,0.08-1.386
		C119.387,12.125,118.944,10.832,118.061,9.907 M76.071,13.782c0-1.657-0.435-2.95-1.304-3.875C73.896,8.984,72.7,8.536,71.18,8.563
		c-1.197,0-2.386,0.359-3.569,1.08c-1.182,0.72-2.193,1.706-3.037,2.955c-0.219-1.305-0.747-2.303-1.591-2.995
		c-0.843-0.694-1.915-1.04-3.221-1.04c-1.277,0-2.494,0.366-3.65,1.101c-1.155,0.733-2.18,1.768-3.078,3.099l0.005-3.508h-5.387
		l-3.018,21.654h6.32l1.839-13.213c0.628-1.551,2.359-3.873,4.074-3.873c0.436,0,0.775,0.123,1.019,0.368
		c0.245,0.245,0.367,0.693,0.367,1.344c0,0.301-0.039,0.653-0.122,1.062l-2.12,14.313h6.319l1.839-13.213
		c0.681-1.496,2.302-3.873,4.116-3.873c0.433,0,0.771,0.123,1.02,0.368c0.242,0.245,0.365,0.693,0.365,1.344
		c0,0.301-0.043,0.653-0.123,1.062l-2.119,14.313h6.32l2.201-15.741C76.031,14.679,76.071,14.217,76.071,13.782"/>
</g>
</svg>
